<svg id="Layer_3" data-name="Layer 3" xmlns="http://www.w3.org/2000/svg" xmlns:xlink="http://www.w3.org/1999/xlink" viewBox="0 0 329.58 722.77"><defs><style>.cls-1,.cls-13,.cls-16,.cls-17,.cls-18,.cls-20,.cls-21,.cls-22,.cls-23,.cls-24,.cls-25,.cls-26,.cls-28,.cls-39,.cls-41,.cls-42,.cls-43{fill:none;}.cls-2{clip-path:url(#clip-path);}.cls-3{fill:#ea2128;}.cls-4{clip-path:url(#clip-path-3);}.cls-5{clip-path:url(#clip-path-4);}.cls-6{clip-path:url(#clip-path-5);}.cls-7{fill:#a7a9ac;}.cls-8{clip-path:url(#clip-path-7);}.cls-9{clip-path:url(#clip-path-9);}.cls-10{clip-path:url(#clip-path-10);}.cls-11{clip-path:url(#clip-path-11);}.cls-12{clip-path:url(#clip-path-13);}.cls-13{stroke:#000;stroke-width:1.65px;}.cls-13,.cls-18,.cls-24,.cls-26,.cls-28{stroke-linecap:round;}.cls-13,.cls-23,.cls-24,.cls-25,.cls-26,.cls-28,.cls-41{stroke-linejoin:round;}.cls-14{fill:#59595b;}.cls-15{fill:#fff;}.cls-16{stroke:#ec2026;}.cls-16,.cls-17,.cls-18,.cls-20,.cls-21,.cls-22,.cls-39,.cls-42,.cls-43{stroke-miterlimit:10;}.cls-16,.cls-17,.cls-18{stroke-width:3px;}.cls-17,.cls-20,.cls-21,.cls-22,.cls-23,.cls-24,.cls-39{stroke:#fff;}.cls-18{stroke:#ed1c24;}.cls-19{fill:#ed1c24;}.cls-20,.cls-43{stroke-width:5px;}.cls-21{stroke-width:2.4px;}.cls-22,.cls-23,.cls-24,.cls-28{stroke-width:2.5px;}.cls-23,.cls-25{stroke-linecap:square;}.cls-25,.cls-26{stroke:#59595b;stroke-width:4px;}.cls-27{fill:#37ba93;}.cls-28{stroke:#37ba93;}.cls-29{clip-path:url(#clip-path-16);}.cls-30{fill:#eb2228;}.cls-31{fill:#595a5c;}.cls-32{fill:#eb2428;}.cls-33{fill:#5a5a5d;}.cls-34{clip-path:url(#clip-path-18);}.cls-35{clip-path:url(#clip-path-20);}.cls-36{fill:#f9f9fa;}.cls-37{clip-path:url(#clip-path-22);}.cls-38{fill:#ee2329;}.cls-40{clip-path:url(#clip-path-24);}.cls-41,.cls-42,.cls-43{stroke:#231f20;}.cls-41,.cls-42{stroke-width:6px;}.cls-44{fill:#bcbec0;}.cls-45{fill:#747576;}.cls-46{fill:#f6f7f8;}.cls-47{clip-path:url(#clip-path-27);}.cls-48{clip-path:url(#clip-path-28);}.cls-49{fill:#9fa0a2;}.cls-50{clip-path:url(#clip-path-29);}.cls-51{clip-path:url(#clip-path-30);}</style><clipPath id="clip-path" transform="translate(50.72 -11.37)"><rect class="cls-1" x="127.64" y="100" width="33.96" height="31.25"/></clipPath><clipPath id="clip-path-3" transform="translate(50.72 -11.37)"><polyline class="cls-1" points="62.7 319.06 115.11 319.06 115.11 367.01 62.7 367.01"/></clipPath><clipPath id="clip-path-4" transform="translate(50.72 -11.37)"><rect class="cls-1" x="62.7" y="319.06" width="52.41" height="47.95"/></clipPath><clipPath id="clip-path-5" transform="translate(50.72 -11.37)"><rect class="cls-1" x="6.24" y="318.84" width="51.57" height="47.23"/></clipPath><clipPath id="clip-path-7" transform="translate(50.72 -11.37)"><rect class="cls-1" x="128.91" y="327.35" width="32.46" height="29.85"/></clipPath><clipPath id="clip-path-9" transform="translate(50.72 -11.37)"><rect class="cls-1" x="188.5" y="443.77" width="26.71" height="25.31"/></clipPath><clipPath id="clip-path-10" transform="translate(50.72 -11.37)"><rect class="cls-1" x="188.5" y="443.77" width="26.71" height="25.31"/></clipPath><clipPath id="clip-path-11" transform="translate(50.72 -11.37)"><rect class="cls-1" x="189.47" y="103.98" width="24.92" height="22.93"/></clipPath><clipPath id="clip-path-13" transform="translate(50.72 -11.37)"><rect class="cls-1" x="239.59" y="95.75" width="38.64" height="38.75"/></clipPath><clipPath id="clip-path-16" transform="translate(50.72 -11.37)"><rect class="cls-1" x="239.31" y="25.08" width="9.21" height="9.2"/></clipPath><clipPath id="clip-path-18" transform="translate(50.72 -11.37)"><rect class="cls-1" x="57.35" y="68.18" width="18.94" height="18.21"/></clipPath><clipPath id="clip-path-20" transform="translate(50.72 -11.37)"><rect class="cls-1" x="10.44" y="517.04" width="5.7" height="5.24"/></clipPath><clipPath id="clip-path-22" transform="translate(50.72 -11.37)"><rect class="cls-1" x="190.6" y="548.21" width="12.55" height="12.08"/></clipPath><clipPath id="clip-path-24" transform="translate(50.72 -11.37)"><rect class="cls-1" x="178.74" y="606.89" width="35.29" height="37.14"/></clipPath><clipPath id="clip-path-27" transform="translate(50.72 -11.37)"><rect class="cls-1" x="16.22" y="697.04" width="26.71" height="25.31"/></clipPath><clipPath id="clip-path-28" transform="translate(50.72 -11.37)"><rect class="cls-1" x="16.22" y="697.04" width="26.71" height="25.31"/></clipPath><clipPath id="clip-path-29" transform="translate(50.72 -11.37)"><rect class="cls-1" x="92.34" y="697.04" width="26.71" height="25.31"/></clipPath><clipPath id="clip-path-30" transform="translate(50.72 -11.37)"><rect class="cls-1" x="92.34" y="697.04" width="26.71" height="25.31"/></clipPath></defs><title>icons-sprite</title><g id="_3" data-name="&lt;3"><g class="cls-2"><g class="cls-2"><path class="cls-3" d="M144.67,105a8.93,8.93,0,0,1,16.92,4.57c-.2,3.74-2.06,6.67-4.67,9.21-3,2.92-6.27,5.55-9.11,8.64a30.76,30.76,0,0,0-2.77,3.45c-.26.39-.42.56-.77.06-2.69-3.88-6.39-6.77-9.82-9.92-2.18-2-4.36-4-5.59-6.77-1.38-3.07-1.78-6.24-.21-9.34A8.87,8.87,0,0,1,144,104l.66,1" transform="translate(50.72 -11.37)"/></g></g></g><g id="_3-2" data-name="&lt;3"><g class="cls-4"><g class="cls-5"><path class="cls-3" d="M89,326.74a13.78,13.78,0,0,1,26.1,7c-.31,5.74-3.18,10.23-7.21,14.13-4.62,4.48-9.67,8.51-14.05,13.25a48.18,48.18,0,0,0-4.27,5.29c-.41.6-.66.88-1.19.1-4.16-5.95-9.86-10.38-15.16-15.22-3.35-3.08-6.72-6.16-8.63-10.39-2.11-4.71-2.73-9.57-.31-14.33A13.73,13.73,0,0,1,88,325.2l1,1.54" transform="translate(50.72 -11.37)"/><path class="cls-3" d="M31.08,326.74a13.79,13.79,0,0,1,26.11,7C56.88,339.5,54,344,50,347.89c-4.63,4.48-9.68,8.51-14.06,13.25a47,47,0,0,0-4.26,5.29c-.41.6-.66.88-1.2.1-4.15-5.95-9.86-10.38-15.15-15.22-3.36-3.08-6.73-6.16-8.63-10.39-2.12-4.71-2.74-9.57-.31-14.33a13.72,13.72,0,0,1,23.69-1.39l1,1.54" transform="translate(50.72 -11.37)"/></g></g></g><g class="cls-6"><g class="cls-6"><path class="cls-7" d="M32,326.26a13.56,13.56,0,0,1,25.68,6.91c-.3,5.66-3.13,10.08-7.09,13.92C46,351.51,41,355.48,36.72,360.15a46.69,46.69,0,0,0-4.2,5.21c-.4.59-.65.86-1.18.1-4.08-5.87-9.7-10.23-14.9-15-3.31-3-6.62-6.06-8.5-10.24-2.08-4.63-2.69-9.41-.3-14.1A13.49,13.49,0,0,1,31,324.75c.29.42.57.85,1,1.51" transform="translate(50.72 -11.37)"/><path class="cls-3" d="M-24.86,326.4a13.49,13.49,0,0,1,9.93-7.35A13.49,13.49,0,0,1,.82,333.32C.52,339-2.3,343.4-6.27,347.24c-4.55,4.41-9.52,8.38-13.83,13.05a47.62,47.62,0,0,0-4.2,5.21c-.4.6-.64.86-1.17.1-4.09-5.86-9.71-10.23-14.91-15-3.31-3-6.62-6.06-8.5-10.23-2.08-4.64-2.69-9.42-.3-14.11a13.5,13.5,0,0,1,23.31-1.37c.29.42.57.85,1,1.51" transform="translate(50.72 -11.37)"/></g></g><g id="_3-3" data-name="&lt;3"><g class="cls-8"><g class="cls-8"><path class="cls-3" d="M145.19,332.13a8.53,8.53,0,0,1,16.16,4.37c-.19,3.58-2,6.37-4.46,8.8-2.87,2.79-6,5.3-8.71,8.25a30.05,30.05,0,0,0-2.64,3.3c-.25.37-.41.54-.74.06-2.57-3.71-6.11-6.47-9.39-9.48-2.08-1.92-4.16-3.84-5.34-6.47-1.31-2.93-1.7-5.95-.19-8.92a8.47,8.47,0,0,1,14.67-.86l.64.95" transform="translate(50.72 -11.37)"/></g></g></g><g id="_3-4" data-name="&lt;3"><g class="cls-9"><g class="cls-10"><path class="cls-3" d="M201.9,447.82a7,7,0,0,1,5.14-3.94,7.09,7.09,0,0,1,8.16,7.65,11.25,11.25,0,0,1-3.67,7.46c-2.36,2.36-4.93,4.49-7.17,7a24.62,24.62,0,0,0-2.17,2.8c-.21.31-.34.46-.61.05-2.12-3.15-5-5.49-7.72-8a17.14,17.14,0,0,1-4.4-5.49,8.65,8.65,0,0,1-.16-7.56,6.87,6.87,0,0,1,12.07-.73l.53.81" transform="translate(50.72 -11.37)"/></g></g></g><g id="_3-5" data-name="&lt;3"><g class="cls-11"><g class="cls-11"><path class="cls-3" d="M202,107.65A6.55,6.55,0,0,1,214.38,111a10,10,0,0,1-3.43,6.76c-2.2,2.14-4.6,4.07-6.68,6.34a22.49,22.49,0,0,0-2,2.53c-.19.29-.31.41-.57.05-2-2.85-4.69-5-7.2-7.28a15.88,15.88,0,0,1-4.11-5,7.65,7.65,0,0,1-.14-6.85,6.5,6.5,0,0,1,11.26-.66l.49.73" transform="translate(50.72 -11.37)"/></g></g></g><g id="free_shipping" data-name="free shipping"><g class="cls-12"><g class="cls-12"><polygon class="cls-13" points="326.73 113.03 309.59 122.3 309.68 100.29 328.13 91.02 326.73 113.03"/><polyline class="cls-13" points="309.68 100.29 291.14 91.4 292.55 113.12 309.59 122.3"/><polyline class="cls-13" points="328.13 91.02 309.5 85.2 291.14 91.4"/></g><polygon points="316.14 87 297.98 94.3 298.54 102.45 302.66 104.79 302.75 96.73 320.36 88.78 316.14 87"/><g class="cls-12"><path class="cls-3" d="M267.78,114.21a4.41,4.41,0,0,1,1.75-2.26c1.41-.89,2.86-.23,2.76,1.76a7,7,0,0,1-1.26,3.4c-.8,1.25-1.68,2.44-2.44,3.72-.27.45-.52.91-.75,1.39-.07.15-.11.22-.21.1a9.6,9.6,0,0,0-2.61-2,3.5,3.5,0,0,1-1.48-1.47,3.62,3.62,0,0,1-.05-2.89c.85-2.26,3.09-3.36,4.11-2l.18.24" transform="translate(50.72 -11.37)"/></g></g></g><path class="cls-14" d="M84.5,97.9a13.56,13.56,0,1,0,13.56,13.56A13.56,13.56,0,0,0,84.5,97.9Zm0,23.71a10.15,10.15,0,1,1,10.15-10.15A10.15,10.15,0,0,1,84.5,121.61Z" transform="translate(50.72 -11.37)"/><rect class="cls-14" x="95.9" y="116.18" width="4.31" height="17.67" rx="2.15" transform="translate(-8.95 94.58) rotate(-45)"/><polygon class="cls-14" points="260.74 160.9 243.31 170.88 243.31 150.72 260.74 160.9"/><polygon class="cls-15" points="260.74 218.18 243.31 228.15 243.31 207.99 260.74 218.18"/><polygon class="cls-14" points="55.58 149.54 60.82 157.58 66.06 149.54 55.58 149.54"/><polygon class="cls-7" points="69.71 149.54 74.95 157.58 80.2 149.54 69.71 149.54"/><polygon class="cls-15" points="240.83 266 252.66 283.33 264.5 266 240.83 266"/><polygon class="cls-14" points="298.02 266 309.86 283.33 321.69 266 298.02 266"/><path class="cls-14" d="M142.89,160" transform="translate(50.72 -11.37)"/><polyline class="cls-16" points="194.61 147.25 203.63 156.25 216.88 142.75"/><polyline class="cls-17" points="194.61 189.98 203.63 198.98 216.88 185.48"/><polygon class="cls-7" points="237.04 314.6 237.04 320.84 248.29 332.2 248.28 348.35 258.35 342.08 258.3 332.15 270.81 320.88 270.79 314.62 237.04 314.6"/><polygon class="cls-15" points="237.04 370.93 237.04 377.18 248.29 388.54 248.28 404.68 258.35 398.41 258.3 388.48 270.81 377.21 270.79 370.96 237.04 370.93"/><polygon class="cls-7" points="300.91 313.34 292.01 322.18 298.32 322.11 298.3 349.62 303.36 349.62 303.3 322.15 309.53 322.16 300.91 313.34"/><polygon class="cls-7" points="318.16 349.62 327.06 340.78 320.75 340.85 320.76 313.34 315.7 313.34 315.77 340.81 309.53 340.8 318.16 349.62"/><polygon class="cls-15" points="300.91 369.67 292.01 378.5 298.32 378.44 298.3 405.94 303.36 405.94 303.3 378.48 309.53 378.49 300.91 369.67"/><polygon class="cls-15" points="318.16 405.94 327.06 397.11 320.75 397.18 320.76 369.67 315.7 369.67 315.77 397.14 309.53 397.13 318.16 405.94"/><polygon class="cls-7" points="195.79 379.58 180.79 393.32 190.82 393.35 190.78 404.57 200.84 404.64 200.84 393.37 210.8 393.38 195.79 379.58"/><circle class="cls-15" cx="126.89" cy="286.79" r="2.49"/><circle class="cls-15" cx="145.48" cy="286.79" r="2.49"/><rect class="cls-7" x="256.99" y="431.87" width="3.61" height="50.74" rx="1.46" transform="translate(449.08 -60.65) rotate(44.92)"/><rect class="cls-7" x="256.99" y="431.87" width="3.61" height="50.74" rx="1.46" transform="translate(816.03 585.43) rotate(134.92)"/><rect class="cls-7" x="143.18" y="260.34" width="3.65" height="51.28" rx="1.46" transform="translate(295.72 -30.04) rotate(45.06)"/><rect class="cls-7" x="143.18" y="260.34" width="3.65" height="51.28" rx="1.46" transform="translate(500.38 374.6) rotate(135.06)"/><path class="cls-18" d="M130.76,461.77" transform="translate(50.72 -11.37)"/><polygon class="cls-19" points="185.66 449.5 183.53 455.31 177.68 453.19 185.66 449.5"/><polygon class="cls-19" points="205.24 440.47 207.38 434.66 213.22 436.79 205.24 440.47"/><path class="cls-18" d="M150.92,442.45s-10.17-3.66-17.41,3.58-2.12,17.49-2.12,17.49" transform="translate(50.72 -11.37)"/><path class="cls-18" d="M159.09,451.63" transform="translate(50.72 -11.37)"/><path class="cls-18" d="M138.92,471s10.17,3.66,17.42-3.58,2.12-17.49,2.12-17.49" transform="translate(50.72 -11.37)"/><rect class="cls-19" x="194.61" y="433.85" width="1.69" height="11.85" rx="0.85"/><rect class="cls-19" x="145.73" y="454.95" width="1.69" height="9.06" rx="0.85" transform="translate(553.98 772.74) rotate(150)"/><rect class="cls-7" x="180.79" y="374.66" width="30.01" height="2.47"/><polyline class="cls-20" points="90.64 422.15 67.5 445.05 90.64 468.68"/><polyline class="cls-20" points="130.89 468.68 154.03 445.78 130.89 422.15"/><polyline class="cls-21" points="140.91 398.32 148.33 398.32 148.33 390.88"/><polyline class="cls-21" points="135.73 378.37 128.31 378.37 128.31 385.81"/><polyline class="cls-22" points="154.52 384.61 142.14 384.61 142.14 372.13"/><line class="cls-17" x1="155.85" y1="371.29" x2="142.46" y2="384.24"/><polyline class="cls-22" points="122.03 392.08 134.57 392.08 134.57 404.56"/><line class="cls-17" x1="120.92" y1="405.4" x2="134.31" y2="392.45"/><polyline class="cls-21" points="79.61 398.34 92.07 398.4 92.07 385.89"/><polyline class="cls-21" points="84.59 378.4 72.05 378.4 72.05 390.86"/><polyline class="cls-22" points="85.79 373.35 98.3 373.35 98.3 385.82"/><line class="cls-17" x1="84.59" y1="386.67" x2="97.98" y2="373.72"/><polyline class="cls-22" points="78.24 404.66 65.83 404.66 65.86 391.98"/><line class="cls-17" x1="79.49" y1="391.34" x2="66.1" y2="404.29"/><polyline class="cls-23" points="146.49 264.44 124.41 264.44 128.74 275.54 146.59 275.54 146.59 264.72"/><path class="cls-24" d="M102.39,273.31h-3.9a2.65,2.65,0,0,0-2.62,2.3v12.86c0,.93.22,3.59-3.47,3.59L75,292" transform="translate(50.72 -11.37)"/><circle class="cls-14" cx="67.48" cy="119.66" r="3.16"/><circle class="cls-14" cx="91.04" cy="119.66" r="3.16"/><polyline class="cls-25" points="92.32 91.32 64.32 91.32 69.82 105.4 92.46 105.4 92.46 91.68"/><path class="cls-26" d="M50,99.52h-5a3.36,3.36,0,0,0-3.31,2.92v16.31c0,1.18.27,4.55-4.4,4.55s-22.14,0-22.14,0" transform="translate(50.72 -11.37)"/><rect class="cls-27" x="76.79" y="278.68" width="0.38" height="0.62"/><rect class="cls-27" x="76.79" y="278.68" width="0.38" height="0.62"/><circle class="cls-27" cx="70.58" cy="286.79" r="2.49"/><circle class="cls-27" cx="89.16" cy="286.79" r="2.49"/><polyline class="cls-28" points="90.17 264.44 68.09 264.44 72.42 275.54 90.28 275.54 90.28 264.72"/><path class="cls-28" d="M46.07,273.31h-3.9a2.65,2.65,0,0,0-2.62,2.3v12.86c0,.93.22,3.59-3.47,3.59l-17.45,0" transform="translate(50.72 -11.37)"/><rect class="cls-15" x="53.28" y="225.96" width="126.26" height="4.85"/><rect class="cls-15" x="53.45" y="215.73" width="126.1" height="5.12"/><rect class="cls-15" x="53.28" y="205.67" width="126.26" height="5.12"/><rect class="cls-15" x="104.56" y="195.71" width="74.98" height="5.12"/><rect class="cls-15" x="104.56" y="185.64" width="74.98" height="5.12"/><rect class="cls-15" x="104.56" y="175.71" width="74.98" height="5.12"/><rect class="cls-15" x="104.56" y="164.57" width="74.98" height="5.01"/><path class="cls-15" d="M2.56,175.94v36.27H53.84V175.94ZM7,209.19H4.84v-2.27H7Zm0-7.06H4.84v-2.27H7Zm0-7.07H4.84v-2.27H7Zm0-7H4.84v-2.27H7Zm0-7H4.84v-2.27H7Zm4.49,24.75H9.33v-2.27h2.15Zm0-7H9.33v-2.27h2.15Zm0-7.2H9.33v-2.27h2.15Zm0-7H9.33v-2.27h2.15Zm4.35,24.51H13.69v-2.27h2.14Zm0-7.06H13.69v-2.27h2.14Zm0-7.07H13.69v-2.27h2.14Zm0-7H13.69v-2.27h2.14Zm0-7H13.69v-2.27h2.14Zm4.49,24.75H18.17v-2.27h2.15Zm0-7H18.17v-2.27h2.15Zm0-7.2H18.17v-2.27h2.15Zm0-7H18.17v-2.27h2.15Zm4.41,24.51H22.58v-2.27h2.15Zm0-7.06H22.58v-2.27h2.15Zm0-7.07H22.58v-2.27h2.15Zm0-7H22.58v-2.27h2.15Zm0-7H22.58v-2.27h2.15Zm4.48,24.75H27.06v-2.27h2.15Zm0-7H27.06v-2.27h2.15Zm0-7.2H27.06v-2.27h2.15Zm0-7H27.06v-2.27h2.15Zm4.5,24.51H31.56v-2.27h2.15Zm0-7.06H31.56v-2.27h2.15Zm0-7.07H31.56v-2.27h2.15Zm0-7H31.56v-2.27h2.15Zm0-7H31.56v-2.27h2.15Zm4.49,24.75H36.05v-2.27H38.2Zm0-7H36.05v-2.27H38.2Zm0-7.2H36.05v-2.27H38.2Zm0-7H36.05v-2.27H38.2Zm4.53,24.51H40.58v-2.27h2.15Zm0-7.06H40.58v-2.27h2.15Zm0-7.07H40.58v-2.27h2.15Zm0-7H40.58v-2.27h2.15Zm0-7H40.58v-2.27h2.15Zm4.49,24.75H45.07v-2.27h2.15Zm0-7H45.07v-2.27h2.15Zm0-7.2H45.07v-2.27h2.15Zm0-7H45.07v-2.27h2.15Zm4.34,24.51H49.41v-2.27h2.15Zm0-7.06H49.41v-2.27h2.15Zm0-7.07H49.41v-2.27h2.15Zm0-7H49.41v-2.27h2.15Zm0-7H49.41v-2.27h2.15Z" transform="translate(50.72 -11.37)"/><g class="cls-29"><g class="cls-29"><path class="cls-30" d="M243.93,26.56a2.47,2.47,0,0,1,1.77-1.44,2.51,2.51,0,0,1,2.82,2.79,4.19,4.19,0,0,1-1.27,2.71c-.81.86-1.7,1.63-2.47,2.54a9.56,9.56,0,0,0-.75,1c-.07.11-.11.16-.21,0a17.69,17.69,0,0,0-2.66-2.93,6.35,6.35,0,0,1-1.52-2,3.3,3.3,0,0,1,0-2.75,2.31,2.31,0,0,1,4.16-.27l.18.3" transform="translate(50.72 -11.37)"/></g></g><rect class="cls-30" x="291.57" y="26.73" width="6.09" height="23.92"/><path class="cls-31" d="M268.12,24.74a26.78,26.78,0,0,1,10.4,1.79v4.31a29.2,29.2,0,0,0-10.47-1.65c-8.79,0-9.77,7.12-9.77,14.23s1,14.23,9.77,14.23A29.2,29.2,0,0,0,278.52,56v4.31a26.61,26.61,0,0,1-10.4,1.8c-11.8,0-14.73-8.34-14.73-18.69s2.93-18.68,14.73-18.68" transform="translate(50.72 -11.37)"/><rect class="cls-32" x="69.38" y="25.07" width="5.55" height="21.81"/><rect class="cls-32" x="69.38" y="16.65" width="5.55" height="5.08"/><path class="cls-33" d="M42.3,28a23.58,23.58,0,0,1,8.83,1.46V33a26,26,0,0,0-8.89-1.33c-7.47,0-8.3,5.75-8.3,11.51s.83,11.5,8.3,11.5a26,26,0,0,0,8.89-1.33v3.48a23.58,23.58,0,0,1-8.83,1.46c-10,0-12.51-6.75-12.51-15.11S32.28,28,42.3,28" transform="translate(50.72 -11.37)"/><path class="cls-33" d="M63.46,43c-4.21.41-6,2.56-6,5.93,0,2.61.65,5.75,6.28,5.75a14.55,14.55,0,0,0,7.88-2.32V42.2Zm1.07-11.33a26.47,26.47,0,0,0-8.9,1.45V29.59A24.41,24.41,0,0,1,64.53,28c8.89,0,11.2,3.95,11.2,9.77V57.67H73.42l-.89-2.33a15.76,15.76,0,0,1-9,2.91c-7.77,0-10.37-4.48-10.37-9.36s2.78-8.6,10.55-9.07l7.82-.46V37.73c0-4.25-1.54-6.1-7-6.1" transform="translate(50.72 -11.37)"/><path class="cls-33" d="M98,36.56c0-3.77-2.25-4.94-5.93-4.94a14.46,14.46,0,0,0-8,1.86V57.67H79.88V28.6h2.31L83.08,31a15,15,0,0,1,9-3c7.06,0,10.08,3.14,10.08,8.72V57.67H98Z" transform="translate(50.72 -11.37)"/><polygon class="cls-33" points="158.58 17.23 167.06 41.06 175.53 17.23 180.1 17.23 168.54 46.87 165.58 46.87 154.01 17.23 158.58 17.23"/><path class="cls-33" d="M140.22,43c-4.21.41-6,2.56-6,5.93,0,2.61.65,5.75,6.28,5.75a14.57,14.57,0,0,0,7.88-2.32V42.2Zm1.07-11.34a26.33,26.33,0,0,0-8.89,1.46V29.59A24.36,24.36,0,0,1,141.29,28c8.89,0,11.2,3.95,11.2,9.76V57.66h-2.31l-.89-2.32a15.75,15.75,0,0,1-8.95,2.9c-7.76,0-10.37-4.47-10.37-9.35s2.78-8.61,10.55-9.07l7.82-.47V37.73c0-4.25-1.54-6.11-7.05-6.11" transform="translate(50.72 -11.37)"/><path class="cls-33" d="M166.54,41C175,41.74,177,44.53,177,49.29c0,4.48-2.91,9-11.92,9a29.51,29.51,0,0,1-8.83-1.45V53.3a26.51,26.51,0,0,0,8.89,1.34c6.16,0,7.82-2.56,7.82-5.29s-.83-4.53-6.7-5c-8.59-.75-10.37-3.72-10.37-7.73S158.6,28,167,28a22.65,22.65,0,0,1,8.54,1.45V33a24.79,24.79,0,0,0-8.59-1.34c-5.87,0-7.12,2.15-7.12,5,0,2.56,1.07,3.9,6.76,4.36" transform="translate(50.72 -11.37)"/><g class="cls-34"><g class="cls-34"><path class="cls-30" d="M66.85,71.1a5,5,0,0,1,9.43,2.67,8.16,8.16,0,0,1-2.6,5.37c-1.68,1.7-3.5,3.23-5.08,5a16.72,16.72,0,0,0-1.54,2c-.15.23-.24.33-.44,0a36.17,36.17,0,0,0-5.47-5.79A12.38,12.38,0,0,1,58,76.49a6.32,6.32,0,0,1-.11-5.44,4.84,4.84,0,0,1,8.56-.53l.37.58" transform="translate(50.72 -11.37)"/></g></g><path class="cls-33" d="M40.81,77.25,41.55,72h2.81L42.2,81.13H39.62l-1.2-5.68-1.21,5.68H34.64L32.48,72h2.81L36,77.25,37.23,72h2.38Z" transform="translate(50.72 -11.37)"/><path class="cls-33" d="M47.74,77.45c-.07,1.17.54,1.51,1.94,1.51a6.75,6.75,0,0,0,3-.6v2.25a9.32,9.32,0,0,1-3.38.63c-3,0-4.41-1.51-4.41-4.75s1.42-4.75,4.21-4.75c3.85,0,4.12,2.88,3.88,5.71Zm0-1.77h2.55c.17-1,0-1.78-1.15-1.78S47.74,74.55,47.74,75.68Z" transform="translate(50.72 -11.37)"/><path class="cls-33" d="M84.25,74.69c0-.41-.29-.63-1.07-.63a8.85,8.85,0,0,0-3.23.69V72.34a9.22,9.22,0,0,1,3.23-.6c3.24,0,3.85,1.39,3.85,3.4V81H85.31l-.4-.68a4,4,0,0,1-2.64.93,2.74,2.74,0,0,1-3.06-2.86c0-2.43,1.78-2.79,3.4-2.95l1.64-.16ZM83,77c-.81.1-1.13.5-1.13,1.2a1,1,0,0,0,1,1.06,1.86,1.86,0,0,0,1.3-.43v-2Z" transform="translate(50.72 -11.37)"/><path class="cls-33" d="M94.23,74.19a4.24,4.24,0,0,0-.88-.07,3.36,3.36,0,0,0-1.91.52V81H88.56V72h1.73l.36.65a4.11,4.11,0,0,1,2.77-.9,2.27,2.27,0,0,1,.81.13Z" transform="translate(50.72 -11.37)"/><path class="cls-33" d="M100.91,81.06a6.81,6.81,0,0,1-1.48.18c-2.52,0-3.47-1.06-3.47-3.18V74.39H94.5V72.48l1.46-.4V70.23l2.88-.77V72h2.23v2.4H98.84v3.43c0,.7.27,1.1,1.18,1.1a3.82,3.82,0,0,0,.89-.11Z" transform="translate(50.72 -11.37)"/><polygon class="cls-33" points="55.86 0 55.86 28.35 58.38 28.35 58.38 2.52 121.12 2.52 121.12 0 55.86 0"/><polygon class="cls-33" points="241.22 63.49 241.22 36.32 238.83 36.32 238.83 61.01 171.53 61.06 171.53 63.52 241.22 63.49"/><g class="cls-35"><g class="cls-35"><path class="cls-30" d="M13.3,517.88a1.5,1.5,0,0,1,2.84.77,2.3,2.3,0,0,1-.79,1.54c-.5.49-1,.93-1.52,1.45a5.18,5.18,0,0,0-.47.58c0,.06-.07.09-.13,0a10.36,10.36,0,0,0-1.65-1.66,3.65,3.65,0,0,1-.93-1.14,1.75,1.75,0,0,1,0-1.56,1.49,1.49,0,0,1,2.58-.16l.11.17" transform="translate(50.72 -11.37)"/></g></g><rect class="cls-32" x="61.97" y="512.21" width="3.85" height="14.11"/><path class="cls-33" d="M28.33,516.8a16.33,16.33,0,0,1,6.12,1v2.41a18,18,0,0,0-6.16-.92c-5.18,0-5.75,4-5.75,8s.57,8,5.75,8a17.73,17.73,0,0,0,6.16-.93v2.42a16.53,16.53,0,0,1-6.12,1c-6.94,0-8.67-4.67-8.67-10.47s1.73-10.47,8.67-10.47" transform="translate(50.72 -11.37)"/><path class="cls-33" d="M43,527.15c-2.91.28-4.19,1.77-4.19,4.11,0,1.81.45,4,4.36,4a10.17,10.17,0,0,0,5.46-1.61v-7Zm.74-7.85a18.45,18.45,0,0,0-6.16,1v-2.41a16.74,16.74,0,0,1,6.16-1.09c6.16,0,7.76,2.74,7.76,6.77v13.77h-1.6l-.61-1.61a10.92,10.92,0,0,1-6.21,2c-5.38,0-7.18-3.1-7.18-6.48s1.93-6,7.31-6.28l5.42-.33v-1.12c0-2.94-1.07-4.23-4.89-4.23" transform="translate(50.72 -11.37)"/><path class="cls-33" d="M66.9,522.72c0-2.62-1.56-3.42-4.11-3.42a10,10,0,0,0-5.55,1.29v16.75H54.37V517.2H56l.62,1.7a10.28,10.28,0,0,1,6.2-2.1c4.89,0,7,2.18,7,6v14.5H66.9Z" transform="translate(50.72 -11.37)"/><polygon class="cls-33" points="124.48 505.83 130.35 522.34 136.23 505.83 139.39 505.83 131.38 526.37 129.33 526.37 121.31 505.83 124.48 505.83"/><path class="cls-33" d="M96.18,527.15c-2.91.28-4.19,1.77-4.19,4.11,0,1.81.45,4,4.36,4a10.14,10.14,0,0,0,5.46-1.61v-7Zm.74-7.85a18.45,18.45,0,0,0-6.16,1v-2.41a16.74,16.74,0,0,1,6.16-1.09c6.16,0,7.77,2.74,7.77,6.77v13.77h-1.61l-.61-1.61a10.92,10.92,0,0,1-6.21,2c-5.38,0-7.18-3.1-7.18-6.48s1.93-6,7.31-6.28l5.42-.33v-1.12c0-2.94-1.07-4.23-4.89-4.23" transform="translate(50.72 -11.37)"/><path class="cls-33" d="M114.42,525.78c5.83.53,7.23,2.46,7.23,5.76,0,3.1-2,6.2-8.26,6.2a20.76,20.76,0,0,1-6.12-1v-2.42a18.57,18.57,0,0,0,6.17.93c4.27,0,5.42-1.78,5.42-3.67s-.58-3.14-4.64-3.46c-6-.53-7.19-2.58-7.19-5.36s1.89-6,7.68-6a15.49,15.49,0,0,1,5.91,1v2.41a17.35,17.35,0,0,0-6-.92c-4.07,0-4.93,1.49-4.93,3.46,0,1.77.74,2.7,4.68,3" transform="translate(50.72 -11.37)"/><polygon class="cls-33" points="55.86 499.08 55.86 516.59 57.41 516.59 57.41 500.63 96.17 500.63 96.17 499.08 55.86 499.08"/><polygon class="cls-33" points="178.74 532.5 178.74 515.71 177.27 515.71 177.27 530.96 135.69 530.99 135.69 532.51 178.74 532.5"/><rect class="cls-36" x="215.66" y="515.79" width="3.68" height="14.46"/><rect class="cls-36" x="215.66" y="510.21" width="3.68" height="3.37"/><path class="cls-36" d="M180.62,521.59a15.74,15.74,0,0,1,5.85,1v2.31a17.08,17.08,0,0,0-5.89-.89c-5,0-5.51,3.82-5.51,7.64s.56,7.62,5.51,7.62a17.12,17.12,0,0,0,5.89-.88v2.31a15.74,15.74,0,0,1-5.85,1c-6.65,0-8.3-4.47-8.3-10s1.65-10,8.3-10" transform="translate(50.72 -11.37)"/><path class="cls-36" d="M194.64,531.49c-2.78.27-4,1.69-4,3.93,0,1.73.43,3.81,4.16,3.81a9.59,9.59,0,0,0,5.23-1.54V531Zm.71-7.52a17.52,17.52,0,0,0-5.89,1v-2.31a15.94,15.94,0,0,1,5.89-1c5.9,0,7.43,2.62,7.43,6.47v13.18h-1.53l-.59-1.54a10.46,10.46,0,0,1-5.94,1.92c-5.14,0-6.87-3-6.87-6.2s1.84-5.7,7-6l5.19-.31V528c0-2.81-1-4-4.68-4" transform="translate(50.72 -11.37)"/><path class="cls-36" d="M217.52,527.25c0-2.5-1.5-3.28-3.94-3.28a9.56,9.56,0,0,0-5.3,1.24v16h-2.75V522h1.53l.59,1.62a9.9,9.9,0,0,1,5.93-2c4.68,0,6.69,2.08,6.69,5.77v13.88h-2.75Z" transform="translate(50.72 -11.37)"/><polygon class="cls-36" points="274.8 510.6 280.42 526.4 286.04 510.6 289.06 510.6 281.4 530.25 279.44 530.25 271.77 510.6 274.8 510.6"/><path class="cls-36" d="M245.53,531.49c-2.79.27-4,1.69-4,3.93,0,1.73.43,3.81,4.16,3.81a9.7,9.7,0,0,0,5.23-1.54V531Zm.71-7.52a17.52,17.52,0,0,0-5.89,1v-2.31a16,16,0,0,1,5.89-1c5.9,0,7.43,2.62,7.43,6.48v13.18h-1.53l-.59-1.54a10.46,10.46,0,0,1-5.94,1.92c-5.14,0-6.87-3-6.87-6.2s1.84-5.7,7-6l5.19-.31V528c0-2.81-1-4-4.68-4" transform="translate(50.72 -11.37)"/><path class="cls-36" d="M263,530.18c5.58.5,6.92,2.35,6.92,5.51,0,3-1.93,5.93-7.9,5.93a19.77,19.77,0,0,1-5.86-1v-2.31a17.82,17.82,0,0,0,5.9.88c4.09,0,5.19-1.69,5.19-3.5s-.55-3-4.44-3.32c-5.7-.5-6.88-2.47-6.88-5.12s1.81-5.71,7.35-5.71a14.84,14.84,0,0,1,5.66,1v2.31a16.6,16.6,0,0,0-5.7-.89c-3.89,0-4.72,1.43-4.72,3.32,0,1.69.71,2.58,4.48,2.89" transform="translate(50.72 -11.37)"/><g class="cls-37"><g class="cls-37"><path class="cls-30" d="M196.89,550.15a3.28,3.28,0,0,1,6.25,1.76,5.37,5.37,0,0,1-1.72,3.56c-1.11,1.13-2.32,2.15-3.37,3.34a12,12,0,0,0-1,1.33c-.1.15-.16.22-.29,0a23.59,23.59,0,0,0-3.63-3.84,8.2,8.2,0,0,1-2.06-2.61,4.19,4.19,0,0,1-.08-3.61,3.21,3.21,0,0,1,5.68-.35l.24.39" transform="translate(50.72 -11.37)"/></g></g><path class="cls-36" d="M179.55,554.28l.49-3.48h1.86l-1.43,6.06h-1.71l-.8-3.77-.79,3.77h-1.71L174,550.8h1.86l.49,3.48.8-3.48h1.57Z" transform="translate(50.72 -11.37)"/><path class="cls-36" d="M184.14,554.41c0,.78.36,1,1.29,1a4.43,4.43,0,0,0,2-.39v1.49a6,6,0,0,1-2.24.42c-2,0-2.92-1-2.92-3.15s.94-3.15,2.79-3.15c2.55,0,2.73,1.91,2.58,3.78Zm0-1.17h1.7c.1-.65,0-1.18-.77-1.18S184.14,552.49,184.14,553.24Z" transform="translate(50.72 -11.37)"/><path class="cls-36" d="M208.34,552.59c0-.28-.19-.42-.7-.42a6.2,6.2,0,0,0-2.15.45V551a6.16,6.16,0,0,1,2.15-.39c2.15,0,2.55.92,2.55,2.25v3.88h-1.14l-.26-.45a2.63,2.63,0,0,1-1.76.62,1.83,1.83,0,0,1-2-1.9c0-1.61,1.18-1.85,2.26-1.95l1.08-.11Zm-.8,1.52c-.53.08-.75.34-.75.8a.66.66,0,0,0,.7.71,1.22,1.22,0,0,0,.85-.29V554Z" transform="translate(50.72 -11.37)"/><path class="cls-36" d="M215,552.25a3.22,3.22,0,0,0-.58,0,2.23,2.23,0,0,0-1.26.35v4.21h-1.91v-6h1.14l.24.43a2.7,2.7,0,0,1,1.84-.6,1.72,1.72,0,0,1,.53.08Z" transform="translate(50.72 -11.37)"/><path class="cls-36" d="M219.39,556.81a4.69,4.69,0,0,1-1,.12c-1.67,0-2.3-.7-2.3-2.11v-2.44h-1v-1.26l1-.26v-1.23l1.91-.52v1.69h1.48v1.58H218v2.28c0,.47.18.73.79.73a2.91,2.91,0,0,0,.58-.07Z" transform="translate(50.72 -11.37)"/><polygon class="cls-36" points="206.7 499.18 206.7 517.97 208.37 517.97 208.37 500.85 249.96 500.84 249.96 499.18 206.7 499.18"/><polygon class="cls-36" points="329.58 541.27 329.58 523.25 328 523.25 328 539.62 283.38 539.65 283.38 541.28 329.58 541.27"/><polygon class="cls-38" points="75.42 563.37 65.42 568.83 56.61 595.13 77.74 602.21 86.63 575.68 81.39 565.37 75.42 563.37"/><path class="cls-15" d="M21.58,595.23c3.76,1.66,4.78,2.85,3.84,5.63-.8,2.39-3.09,3.47-7.34,2l-2,2.55-2.42-.81,2.15-2.71a8.18,8.18,0,0,1-1.95-1.28l.85-2.52a15.44,15.44,0,0,0,4.33,2.3c2,.66,3.17.52,3.53-.57s-.33-1.64-2.16-2.43c-3.76-1.63-4.72-2.83-3.89-5.3s3.21-3.49,7.05-2.2l2-2.57,2.42.81-2.19,2.73a9,9,0,0,1,1.87,1.19l-.85,2.55a14.93,14.93,0,0,0-4.29-2.26c-1.81-.61-2.84-.5-3.21.62C19,593.94,19.77,594.46,21.58,595.23Z" transform="translate(50.72 -11.37)"/><circle class="cls-15" cx="76.46" cy="569.81" r="2.26"/><polygon class="cls-39" points="75.42 616.58 65.42 622.05 56.61 648.35 77.74 655.43 86.63 628.9 81.39 618.59 75.42 616.58"/><path class="cls-15" d="M21.58,648.45c3.76,1.66,4.78,2.85,3.84,5.62-.8,2.4-3.09,3.48-7.34,2l-2,2.55-2.42-.81,2.15-2.71a8.18,8.18,0,0,1-1.95-1.28l.85-2.52a15.44,15.44,0,0,0,4.33,2.3c2,.66,3.17.52,3.53-.57s-.33-1.64-2.16-2.43c-3.76-1.63-4.72-2.83-3.89-5.3s3.21-3.49,7.05-2.2l2-2.57,2.42.81-2.19,2.73a9,9,0,0,1,1.87,1.19l-.85,2.55a14.93,14.93,0,0,0-4.29-2.26c-1.81-.61-2.84-.5-3.21.62C19,647.16,19.77,647.68,21.58,648.45Z" transform="translate(50.72 -11.37)"/><circle class="cls-39" cx="76.46" cy="623.03" r="2.26"/><g id="free_shipping-2" data-name="free shipping"><g class="cls-40"><g class="cls-40"><polygon class="cls-13" points="262.72 622.98 247.07 631.87 247.15 610.78 264 601.89 262.72 622.98"/><polyline class="cls-13" points="247.15 610.78 230.22 602.25 231.5 623.07 247.07 631.87"/><polyline class="cls-13" points="264 601.89 246.98 596.31 230.22 602.25"/></g><polygon points="253.05 598.03 236.46 605.03 236.97 612.84 240.74 615.08 240.82 607.37 256.9 599.74 253.05 598.03"/><g class="cls-40"><path class="cls-3" d="M204.48,624.58a4.26,4.26,0,0,1,1.6-2.16c1.29-.85,2.62-.22,2.53,1.69a6.84,6.84,0,0,1-1.16,3.25c-.73,1.2-1.53,2.34-2.23,3.57-.25.43-.47.88-.68,1.33-.06.15-.1.22-.19.1a9.14,9.14,0,0,0-2.38-1.89,3.31,3.31,0,0,1-1.36-1.41,3.62,3.62,0,0,1,0-2.76c.77-2.17,2.82-3.23,3.75-1.94l.16.22" transform="translate(50.72 -11.37)"/></g></g></g><path class="cls-41" d="M161,624.4A36.44,36.44,0,1,0,197.44,588h-9.69" transform="translate(50.72 -11.37)"/><polyline class="cls-42" points="252.13 565.7 238.47 576.34 252.13 587.79"/><path class="cls-43" d="M189.82,600" transform="translate(50.72 -11.37)"/><rect class="cls-33" x="105.48" y="572.88" width="9.07" height="9.07"/><rect class="cls-33" x="119.08" y="572.88" width="9.07" height="9.07"/><rect class="cls-33" x="105.48" y="586.23" width="9.07" height="9.07"/><rect class="cls-33" x="119.08" y="586.23" width="9.07" height="9.07"/><rect class="cls-44" x="146.26" y="572.88" width="18.08" height="9.07"/><rect class="cls-44" x="146.26" y="586.23" width="18.08" height="9.07"/><rect class="cls-7" x="136.56" y="565.92" width="1.18" height="36.33"/><polygon class="cls-14" points="195.6 565.63 186.57 574.91 188.86 574.89 188.86 583.87 193.44 583.89 193.44 577.36 197.96 577.36 197.96 583.89 202.44 583.94 202.46 574.86 204.72 574.88 195.6 565.63"/><polygon class="cls-38" points="195.6 583.94 186.57 593.22 188.86 593.2 188.86 602.18 193.44 602.21 193.44 595.67 197.96 595.67 197.96 602.21 202.44 602.25 202.46 593.17 204.72 593.19 195.6 583.94"/><rect class="cls-14" x="290.32" y="148.96" width="35.67" height="4.8" rx="2.4"/><rect class="cls-14" x="290.32" y="158.16" width="35.67" height="4.8" rx="2.4"/><rect class="cls-14" x="290.32" y="167.29" width="35.67" height="4.8" rx="2.4"/><rect class="cls-15" x="290.32" y="205.67" width="35.67" height="4.8" rx="2.4"/><rect class="cls-15" x="290.32" y="214.87" width="35.67" height="4.8" rx="2.4"/><rect class="cls-15" x="290.32" y="224" width="35.67" height="4.8" rx="2.4"/><circle class="cls-45" cx="79.3" cy="699.32" r="23.44"/><circle class="cls-46" cx="80.3" cy="697.32" r="23.44"/><g id="_3-6" data-name="&lt;3"><g class="cls-47"><g class="cls-48"><path class="cls-49" d="M29.62,701.1a7,7,0,0,1,13.3,3.7,11.2,11.2,0,0,1-3.67,7.46c-2.36,2.37-4.93,4.5-7.16,7a24.59,24.59,0,0,0-2.18,2.79c-.21.32-.33.46-.61.05-2.12-3.14-5-5.48-7.72-8a17.39,17.39,0,0,1-4.4-5.49A8.65,8.65,0,0,1,17,701a6.88,6.88,0,0,1,12.08-.73c.15.22.29.45.52.81" transform="translate(50.72 -11.37)"/></g></g></g><circle class="cls-45" cx="155.42" cy="699.32" r="23.44"/><circle class="cls-46" cx="156.42" cy="697.32" r="23.44"/><g id="_3-7" data-name="&lt;3"><g class="cls-50"><g class="cls-51"><path class="cls-3" d="M105.74,701.1a7,7,0,0,1,13.3,3.7,11.25,11.25,0,0,1-3.67,7.46c-2.36,2.37-4.94,4.5-7.17,7a24.51,24.51,0,0,0-2.17,2.79c-.21.32-.34.46-.61.05-2.12-3.14-5-5.48-7.72-8a17.25,17.25,0,0,1-4.4-5.49,8.65,8.65,0,0,1-.16-7.56,6.87,6.87,0,0,1,12.07-.73l.53.81" transform="translate(50.72 -11.37)"/></g></g></g></svg>